<svg width="566.6085327148437px" height="88.39999999999999px" xmlns="http://www.w3.org/2000/svg" viewBox="-33.30426635742185 30.800000000000004 566.6085327148437 88.39999999999999" style="background: rgba(0, 0, 0, 0);" preserveAspectRatio="xMidYMid"><defs><linearGradient id="editing-rainbow-gradient" x1="0" x2="1" y1="0.5" y2="0.5" gradientUnits="objectBoundingBox"><stop offset="0.00" stop-color="#f00"></stop><stop offset="0.17" stop-color="#f90"></stop><stop offset="0.34" stop-color="#ff4"></stop><stop offset="0.51" stop-color="#9f0"></stop><stop offset="0.68" stop-color="#09f"></stop><stop offset="0.85" stop-color="#00f"></stop><stop offset="1.00" stop-color="#90f"></stop></linearGradient><filter id="editing-rainbow" x="-100%" y="-100%" width="300%" height="300%"><feMorphology operator="dilate" radius="1,2" in="SourceGraphic" result="dilate"></feMorphology><feColorMatrix in="dilate" result="color" type="matrix" values="0.7 0 0 0 0  0 0.7 0 0 0  0 0 0.7 0 0  0 0 0 1 0"></feColorMatrix><feOffset dy="2" result="offset"></feOffset><feGaussianBlur stdDeviation="3"></feGaussianBlur><feOffset dy="3"></feOffset><feColorMatrix result="blur" type="matrix" values="0.7 0 0 0 0  0 0.7 0 0 0  0 0 0.7 0 0  0 0 0 1 0"></feColorMatrix><feMerge><feMergeNode in="blur"></feMergeNode><feMergeNode in="offset"></feMergeNode><feMergeNode in="SourceGraphic"></feMergeNode></feMerge></filter></defs><g filter="url(#editing-rainbow)"><g transform="translate(49.09877812862396, 90.46000289916992)"><path d="M21.72-25.12L21.72-25.12L13.64-15.56L23.28-2.48L23.28-2.48Q23.64-2 24.90-1.64L24.90-1.64L24.90-1.64Q26.16-1.28 27.12-1.20L27.12-1.20L27.12-1.20Q27.24-0.44 26.92 0.20L26.92 0.20L26.92 0.20Q23.32 0 22.04 0L22.04 0L22.04 0Q19.64 0 15.96 0.20L15.96 0.20L15.96 0.20Q15.84-0.60 16.04-1.20L16.04-1.20L16.04-1.20Q18.12-1.40 19.24-2L19.24-2L11.56-12.40L8.92-12.40L8.92-2L12-1.20L12-1.20Q12.12-0.44 11.80 0.20L11.80 0.20L11.80 0.20Q8.20 0 6.92 0L6.92 0L6.92 0Q5.16 0 1.44 0.20L1.44 0.20L1.44 0.20Q1.32-0.64 1.52-1.20L1.52-1.20L1.52-1.20Q3.24-1.44 4.72-2L4.72-2L4.72-26L1.64-26.80L1.64-26.80Q1.52-27.56 1.84-28.20L1.84-28.20L1.84-28.20Q5.44-28 6.72-28L6.72-28L6.72-28Q8.52-28 12.20-28.20L12.20-28.20L12.20-28.20Q12.32-27.44 12.12-26.80L12.12-26.80L12.12-26.80Q10.24-26.60 8.92-26L8.92-26L8.92-14.60L10.44-14.60L19.72-26L19.72-26Q18.80-26.56 16.64-26.80L16.64-26.80L16.64-26.80Q16.52-27.56 16.84-28.20L16.84-28.20L16.84-28.20Q20.44-28 21.80-28L21.80-28L21.80-28Q23.16-28 25.96-28.20L25.96-28.20L25.96-28.20Q26.08-27.44 25.88-26.80L25.88-26.80L25.88-26.80Q22.96-26.44 21.72-25.12ZM31.84-4.80L31.84-4.80L31.84-4.80Q31.84-3.20 32.70-2.36L32.70-2.36L32.70-2.36Q33.56-1.52 35.04-1.52L35.04-1.52L35.04-1.52Q36.16-1.52 37.42-2.20L37.42-2.20L37.42-2.20Q38.68-2.88 39.32-3.80L39.32-3.80L39.32-9.20L39.32-9.20Q35.20-9.20 33.52-8.22L33.52-8.22L33.52-8.22Q31.84-7.24 31.84-4.80ZM43.24-12.68L43.24-12.68L43.24-1.96L43.24-1.96Q43.84-1.64 46.04-1.16L46.04-1.16L46.04-1.16Q46.16-0.40 45.84 0.24L45.84 0.24L45.84 0.24Q44.36 0.52 42.48 0.52L42.48 0.52L42.48 0.52Q41.16 0.52 40.20 0.28L40.20 0.28L39.64-1.80L39.48-1.80L39.48-1.80Q37.08 0.68 33.52 0.68L33.52 0.68L33.52 0.68Q30.96 0.68 29.40-0.66L29.40-0.66L29.40-0.66Q27.84-2 27.84-4.40L27.84-4.40L27.84-4.40Q27.88-11 39.32-10.80L39.32-10.80L39.36-14.32L39.36-14.32Q39.40-18.96 35.84-19L35.84-19L35.84-19Q33.72-19 32.08-18.40L32.08-18.40L31.56-14.16L31.56-14.16Q30.76-13.88 29.80-14L29.80-14L29.80-14Q28.96-17.04 29-19.20L29-19.20L29-19.20Q32.32-20.80 36.92-20.80L36.92-20.80L36.92-20.80Q40.36-20.84 41.80-19.04L41.80-19.04L41.80-19.04Q43.24-17.24 43.24-12.68ZM54.08-29.80L54.08-29.80L54.08-2L57.16-1.20L57.16-1.20Q57.28-0.44 56.96 0.20L56.96 0.20L56.96 0.20Q53.36 0 52.08 0L52.08 0L52.08 0Q50.92 0 47.20 0.20L47.20 0.20L47.20 0.20Q47.08-0.56 47.28-1.20L47.28-1.20L47.28-1.20Q49.52-1.76 50.08-2L50.08-2L50.08-27.44L46.76-27.76L46.76-27.76Q46.64-28.56 46.96-29.16L46.96-29.16L46.96-29.16Q50.28-29.64 52.56-30.24L52.56-30.24L52.56-30.24Q53.24-30.20 54.08-29.80ZM75.32 0.64L75.32 0.64L75.32 0.64Q73.08 0.64 71.94-0.64L71.94-0.64L71.94-0.64Q70.80-1.92 70.80-4.76L70.80-4.76L70.80-17.52L68-17.52L68-17.52Q67.60-18.28 67.80-19.32L67.80-19.32L67.80-19.32Q70.04-19.28 70.94-20.22L70.94-20.22L70.94-20.22Q71.84-21.16 72.60-24.20L72.60-24.20L74.72-24.20L74.72-19.72L78.92-19.72L78.92-19.72Q79.48-18.56 78.92-17.52L78.92-17.52L74.72-17.52L74.72-5.76L74.72-5.76Q74.72-3.08 75.14-2.20L75.14-2.20L75.14-2.20Q75.56-1.32 76.72-1.36L76.72-1.36L76.72-1.36Q77.72-1.36 79.12-2.16L79.12-2.16L79.12-2.16Q79.68-1.80 79.72-0.96L79.72-0.96L79.72-0.96Q79.20-0.36 78.02 0.14L78.02 0.14L78.02 0.14Q76.84 0.64 75.32 0.64ZM87.44-29.80L87.44-29.80L87.44-17.80L87.64-17.80L87.64-17.80Q91-20.80 94.20-20.80L94.20-20.80L94.20-20.80Q97.36-20.80 98.92-19.14L98.92-19.14L98.92-19.14Q100.48-17.48 100.48-14.56L100.48-14.56L100.48-2L103.36-1.20L103.36-1.20Q103.48-0.44 103.16 0.20L103.16 0.20L103.16 0.20Q99.56 0 98.48 0L98.48 0L98.48 0Q97.28 0 93.60 0.20L93.60 0.20L93.60 0.20Q93.48-0.56 93.68-1.20L93.68-1.20L93.68-1.20Q95.68-1.60 96.48-2L96.48-2L96.48-13.96L96.48-13.96Q96.48-16.24 95.46-17.14L95.46-17.14L95.46-17.14Q94.44-18.04 92.60-18L92.60-18L92.60-18Q91.32-18 89.94-17.36L89.94-17.36L89.94-17.36Q88.56-16.72 87.64-15.68L87.64-15.68L87.64-2L90.32-1.20L90.32-1.20Q90.44-0.44 90.12 0.20L90.12 0.20L90.12 0.20Q86.52 0 85.64 0L85.64 0L85.64 0Q84.48 0 80.76 0.20L80.76 0.20L80.76 0.20Q80.64-0.56 80.84-1.20L80.84-1.20L80.84-1.20Q83.08-1.72 83.64-2L83.64-2L83.64-27.44L80.32-27.76L80.32-27.76Q80.20-28.56 80.52-29.16L80.52-29.16L80.52-29.16Q83.40-29.60 85.92-30.24L85.92-30.24L85.92-30.24Q86.60-30.20 87.44-29.80ZM121.76-10.68L109.68-10.80L109.68-10L109.68-10Q109.68-6 111.30-3.76L111.30-3.76L111.30-3.76Q112.92-1.52 115.72-1.52L115.72-1.52L115.72-1.52Q117.52-1.52 118.60-1.86L118.60-1.86L118.60-1.86Q119.68-2.20 121.32-3.32L121.32-3.32L121.32-3.32Q121.96-3.04 122.04-2.36L122.04-2.36L122.04-2.36Q119.28 0.64 115.60 0.68L115.60 0.68L115.60 0.68Q111.00 0.68 108.24-2.20L108.24-2.20L108.24-2.20Q105.48-5.08 105.44-10L105.44-10L105.44-10Q105.48-15.04 108.34-17.86L108.34-17.86L108.34-17.86Q111.20-20.68 115.40-20.68L115.40-20.68L115.40-20.68Q118.80-20.68 120.58-18.38L120.58-18.38L120.58-18.38Q122.36-16.08 122.36-12.16L122.36-12.16L122.36-12.16Q122.36-11.48 122.32-11.12L122.32-11.12L121.76-10.68ZM115.36-18.96L115.36-18.96L115.36-18.96Q113.48-18.96 111.90-17.26L111.90-17.26L111.90-17.26Q110.32-15.56 109.84-12.44L109.84-12.44L118.56-12.92L118.56-12.92Q118.56-16.12 117.86-17.54L117.86-17.54L117.86-17.54Q117.16-18.96 115.36-18.96ZM153.04-10.60L153.04-10.60L159.56-27.20L159.56-28L161.96-28L161.96-28Q163.76-28 167.44-28.20L167.44-28.20L167.44-28.20Q167.56-27.44 167.36-26.80L167.36-26.80L167.36-26.80Q165.16-26.44 164.16-26L164.16-26L166.16-2L169.24-1.20L169.24-1.20Q169.36-0.44 169.04 0.20L169.04 0.20L169.04 0.20Q165.44 0 164.16 0L164.16 0L164.16 0Q162.40 0 158.68 0.20L158.68 0.20L158.68 0.20Q158.56-0.60 158.76-1.20L158.76-1.20L158.76-1.20Q161.40-1.56 161.96-2L161.96-2L160.28-19.52L160.28-19.52Q160.20-20.28 160.20-21.76L160.20-21.76L160.20-21.76Q160.20-23 160.24-23.60L160.24-23.60L160.12-23.60L160.12-23.60Q159.48-21.20 158.84-19.52L158.84-19.52L151.60-1.24L151.60-1.24Q150.80-0.80 150.16-0.84L150.16-0.84L142.28-19.52L142.28-19.52Q141.76-20.76 140.96-23.60L140.96-23.60L140.84-23.60L140.72-19.48L139.72-1.96L142.80-1.16L142.80-1.16Q142.92-0.40 142.60 0.24L142.60 0.24L142.60 0.24Q142.12 0.20 141.28 0.14L141.28 0.14L141.28 0.14Q140.44 0.08 139.74 0.04L139.74 0.04L139.74 0.04Q139.04 0 138.40 0L138.40 0L138.40 0Q137.04 0 134.12 0.20L134.12 0.20L134.12 0.20Q134-0.56 134.20-1.20L134.20-1.20L134.20-1.20Q135.96-1.44 137.32-2L137.32-2L138.92-26L135.84-26.80L135.84-26.80Q135.72-27.56 136.04-28.20L136.04-28.20L136.04-28.20Q139.64-28 140.92-28L140.92-28L143.52-28L143.52-27.20L150.04-10.60L150.04-10.60Q150.76-8.92 151.48-5.88L151.48-5.88L151.56-5.88L151.56-5.88Q152.28-8.64 153.04-10.60ZM175.16-4.80L175.16-4.80L175.16-4.80Q175.16-3.20 176.02-2.36L176.02-2.36L176.02-2.36Q176.88-1.52 178.36-1.52L178.36-1.52L178.36-1.52Q179.48-1.52 180.74-2.20L180.74-2.20L180.74-2.20Q182-2.88 182.64-3.80L182.64-3.80L182.64-9.20L182.64-9.20Q178.52-9.20 176.84-8.22L176.84-8.22L176.84-8.22Q175.16-7.24 175.16-4.80ZM186.56-12.68L186.56-12.68L186.56-1.96L186.56-1.96Q187.16-1.64 189.36-1.16L189.36-1.16L189.36-1.16Q189.48-0.40 189.16 0.24L189.16 0.24L189.16 0.24Q187.68 0.52 185.80 0.52L185.80 0.52L185.80 0.52Q184.48 0.52 183.52 0.28L183.52 0.28L182.96-1.80L182.80-1.80L182.80-1.80Q180.40 0.68 176.84 0.68L176.84 0.68L176.84 0.68Q174.28 0.68 172.72-0.66L172.72-0.66L172.72-0.66Q171.16-2 171.16-4.40L171.16-4.40L171.16-4.40Q171.20-11 182.64-10.80L182.64-10.80L182.68-14.32L182.68-14.32Q182.72-18.96 179.16-19L179.16-19L179.16-19Q177.04-19 175.40-18.40L175.40-18.40L174.88-14.16L174.88-14.16Q174.08-13.88 173.12-14L173.12-14L173.12-14Q172.28-17.04 172.32-19.20L172.32-19.20L172.32-19.20Q175.64-20.80 180.24-20.80L180.24-20.80L180.24-20.80Q183.68-20.84 185.12-19.04L185.12-19.04L185.12-19.04Q186.56-17.24 186.56-12.68ZM198 0.64L198 0.64L198 0.64Q195.76 0.64 194.62-0.64L194.62-0.64L194.62-0.64Q193.48-1.92 193.48-4.76L193.48-4.76L193.48-17.52L190.68-17.52L190.68-17.52Q190.28-18.28 190.48-19.32L190.48-19.32L190.48-19.32Q192.72-19.28 193.62-20.22L193.62-20.22L193.62-20.22Q194.52-21.16 195.28-24.20L195.28-24.20L197.40-24.20L197.40-19.72L201.60-19.72L201.60-19.72Q202.16-18.56 201.60-17.52L201.60-17.52L197.40-17.52L197.40-5.76L197.40-5.76Q197.40-3.08 197.82-2.20L197.82-2.20L197.82-2.20Q198.24-1.32 199.40-1.36L199.40-1.36L199.40-1.36Q200.40-1.36 201.80-2.16L201.80-2.16L201.80-2.16Q202.36-1.80 202.40-0.96L202.40-0.96L202.40-0.96Q201.88-0.36 200.70 0.14L200.70 0.14L200.70 0.14Q199.52 0.64 198 0.64ZM210.12-29.80L210.12-29.80L210.12-17.80L210.32-17.80L210.32-17.80Q213.68-20.80 216.88-20.80L216.88-20.80L216.88-20.80Q220.04-20.80 221.60-19.14L221.60-19.14L221.60-19.14Q223.16-17.48 223.16-14.56L223.16-14.56L223.16-2L226.04-1.20L226.04-1.20Q226.16-0.44 225.84 0.20L225.84 0.20L225.84 0.20Q222.24 0 221.16 0L221.16 0L221.16 0Q219.96 0 216.28 0.20L216.28 0.20L216.28 0.20Q216.16-0.56 216.36-1.20L216.36-1.20L216.36-1.20Q218.36-1.60 219.16-2L219.16-2L219.16-13.96L219.16-13.96Q219.16-16.24 218.14-17.14L218.14-17.14L218.14-17.14Q217.12-18.04 215.28-18L215.28-18L215.28-18Q214-18 212.62-17.36L212.62-17.36L212.62-17.36Q211.24-16.72 210.32-15.68L210.32-15.68L210.32-2L213-1.20L213-1.20Q213.12-0.44 212.80 0.20L212.80 0.20L212.80 0.20Q209.20 0 208.32 0L208.32 0L208.32 0Q207.16 0 203.44 0.20L203.44 0.20L203.44 0.20Q203.32-0.56 203.52-1.20L203.52-1.20L203.52-1.20Q205.76-1.72 206.32-2L206.32-2L206.32-27.44L203-27.76L203-27.76Q202.88-28.56 203.20-29.16L203.20-29.16L203.20-29.16Q206.08-29.60 208.60-30.24L208.60-30.24L208.60-30.24Q209.28-30.20 210.12-29.80ZM244.44-10.68L232.36-10.80L232.36-10L232.36-10Q232.36-6 233.98-3.76L233.98-3.76L233.98-3.76Q235.60-1.52 238.40-1.52L238.40-1.52L238.40-1.52Q240.20-1.52 241.28-1.86L241.28-1.86L241.28-1.86Q242.36-2.20 244-3.32L244-3.32L244-3.32Q244.64-3.04 244.72-2.36L244.72-2.36L244.72-2.36Q241.96 0.64 238.28 0.68L238.28 0.68L238.28 0.68Q233.68 0.68 230.92-2.20L230.92-2.20L230.92-2.20Q228.16-5.08 228.12-10L228.12-10L228.12-10Q228.16-15.04 231.02-17.86L231.02-17.86L231.02-17.86Q233.88-20.68 238.08-20.68L238.08-20.68L238.08-20.68Q241.48-20.68 243.26-18.38L243.26-18.38L243.26-18.38Q245.04-16.08 245.04-12.16L245.04-12.16L245.04-12.16Q245.04-11.48 245-11.12L245-11.12L244.44-10.68ZM238.04-18.96L238.04-18.96L238.04-18.96Q236.16-18.96 234.58-17.26L234.58-17.26L234.58-17.26Q233-15.56 232.52-12.44L232.52-12.44L241.24-12.92L241.24-12.92Q241.24-16.12 240.54-17.54L240.54-17.54L240.54-17.54Q239.84-18.96 238.04-18.96ZM254.28-20.04L254.28-20.04L254.16-17.32L254.20-17.28L254.20-17.28Q257.40-20.56 261.32-20.64L261.32-20.64L261.32-20.64Q265.36-20.60 266.56-17.28L266.56-17.28L266.56-17.28Q269.56-20.68 273.32-20.64L273.32-20.64L273.32-20.64Q275.96-20.64 277.44-19.14L277.44-19.14L277.44-19.14Q278.92-17.64 278.92-14.84L278.92-14.84L278.96-2L281.76-1.20L281.76-1.20Q281.88-0.44 281.56 0.20L281.56 0.20L281.56 0.20Q277.96 0 276.96 0L276.96 0L276.96 0Q275.92 0 272.24 0.20L272.24 0.20L272.24 0.20Q272.12-0.56 272.32-1.20L272.32-1.20L272.32-1.20Q273.56-1.44 274.96-2L274.96-2L274.96-13.04L274.96-13.04Q274.96-15.68 274.14-16.72L274.14-16.72L274.14-16.72Q273.32-17.76 271.44-17.76L271.44-17.76L271.44-17.76Q269.16-17.72 266.92-15.16L266.92-15.16L266.96-2L269.76-1.20L269.76-1.20Q269.88-0.44 269.56 0.20L269.56 0.20L269.56 0.20Q266.24 0 264.96 0L264.96 0L264.96 0Q263.72 0 260.24 0.20L260.24 0.20L260.24 0.20Q260.12-0.56 260.32-1.20L260.32-1.20L260.32-1.20Q261.56-1.44 262.96-2L262.96-2L262.96-13.04L262.96-13.04Q262.96-15.68 262.14-16.76L262.14-16.76L262.14-16.76Q261.32-17.84 259.44-17.84L259.44-17.84L259.44-17.84Q257.24-17.80 254.48-15.44L254.48-15.44L254.48-2L257.16-1.20L257.16-1.20Q257.28-0.44 256.96 0.20L256.96 0.20L256.96 0.20Q253.76 0 252.48 0L252.48 0L252.48 0Q251.04 0 247.60 0.20L247.60 0.20L247.60 0.20Q247.48-0.56 247.68-1.20L247.68-1.20L247.68-1.20Q249.60-1.68 250.48-2L250.48-2L250.48-17.60L247.16-17.92L247.16-17.92Q247.04-18.72 247.36-19.32L247.36-19.32L247.36-19.32Q250.44-19.84 252.92-20.40L252.92-20.40L252.92-20.40Q253.60-20.36 254.28-20.04ZM287.28-4.80L287.28-4.80L287.28-4.80Q287.28-3.20 288.14-2.36L288.14-2.36L288.14-2.36Q289-1.52 290.48-1.52L290.48-1.52L290.48-1.52Q291.60-1.52 292.86-2.20L292.86-2.20L292.86-2.20Q294.12-2.88 294.76-3.80L294.76-3.80L294.76-9.20L294.76-9.20Q290.64-9.20 288.96-8.22L288.96-8.22L288.96-8.22Q287.28-7.24 287.28-4.80ZM298.68-12.68L298.68-12.68L298.68-1.96L298.68-1.96Q299.28-1.64 301.48-1.16L301.48-1.16L301.48-1.16Q301.60-0.40 301.28 0.24L301.28 0.24L301.28 0.24Q299.80 0.52 297.92 0.52L297.92 0.52L297.92 0.52Q296.60 0.52 295.64 0.28L295.64 0.28L295.08-1.80L294.92-1.80L294.92-1.80Q292.52 0.68 288.96 0.68L288.96 0.68L288.96 0.68Q286.40 0.68 284.84-0.66L284.84-0.66L284.84-0.66Q283.28-2 283.28-4.40L283.28-4.40L283.28-4.40Q283.32-11 294.76-10.80L294.76-10.80L294.80-14.32L294.80-14.32Q294.84-18.96 291.28-19L291.28-19L291.28-19Q289.16-19 287.52-18.40L287.52-18.40L287-14.16L287-14.16Q286.20-13.88 285.24-14L285.24-14L285.24-14Q284.40-17.04 284.44-19.20L284.44-19.20L284.44-19.20Q287.76-20.80 292.36-20.80L292.36-20.80L292.36-20.80Q295.80-20.84 297.24-19.04L297.24-19.04L297.24-19.04Q298.68-17.24 298.68-12.68ZM310.12 0.64L310.12 0.64L310.12 0.64Q307.88 0.64 306.74-0.64L306.74-0.64L306.74-0.64Q305.60-1.92 305.60-4.76L305.60-4.76L305.60-17.52L302.80-17.52L302.80-17.52Q302.40-18.28 302.60-19.32L302.60-19.32L302.60-19.32Q304.84-19.28 305.74-20.22L305.74-20.22L305.74-20.22Q306.64-21.16 307.40-24.20L307.40-24.20L309.52-24.20L309.52-19.72L313.72-19.72L313.72-19.72Q314.28-18.56 313.72-17.52L313.72-17.52L309.52-17.52L309.52-5.76L309.52-5.76Q309.52-3.08 309.94-2.20L309.94-2.20L309.94-2.20Q310.36-1.32 311.52-1.36L311.52-1.36L311.52-1.36Q312.52-1.36 313.92-2.16L313.92-2.16L313.92-2.16Q314.48-1.80 314.52-0.96L314.52-0.96L314.52-0.96Q314.00-0.36 312.82 0.14L312.82 0.14L312.82 0.14Q311.64 0.64 310.12 0.64ZM317.52-26.76L317.52-26.76L317.52-26.76Q317.52-27.52 318.44-28.32L318.44-28.32L318.44-28.32Q319.36-29.12 320.36-29.12L320.36-29.12L320.36-29.12Q321.36-29.12 322.08-28.22L322.08-28.22L322.08-28.22Q322.80-27.32 322.80-26.40L322.80-26.40L322.80-26.40Q322.80-25.60 321.90-24.82L321.90-24.82L321.90-24.82Q321-24.04 319.96-24.04L319.96-24.04L319.96-24.04Q319.04-24.04 318.28-24.94L318.28-24.94L318.28-24.94Q317.52-25.84 317.52-26.76ZM323.04-19.96L323.04-19.96L323.04-2L325.72-1.20L325.72-1.20Q325.84-0.44 325.52 0.20L325.52 0.20L325.52 0.20Q321.92 0 321.04 0L321.04 0L321.04 0Q319.84 0 316.16 0.20L316.16 0.20L316.16 0.20Q316.04-0.56 316.24-1.20L316.24-1.20L316.24-1.20Q318.48-1.72 319.04-2L319.04-2L319.04-17.60L315.72-17.92L315.72-17.92Q315.60-18.72 315.92-19.32L315.92-19.32L315.92-19.32Q319.24-19.80 321.52-20.40L321.52-20.40L321.52-20.40Q322.20-20.36 323.04-19.96ZM342.04-14.16L342.04-14.16L341.52-18.40L341.52-18.40Q340.28-18.96 338.52-18.96L338.52-18.96L338.52-18.96Q336.96-18.96 335.78-18.32L335.78-18.32L335.78-18.32Q334.60-17.68 333.80-16.50L333.80-16.50L333.80-16.50Q333-15.32 332.60-13.68L332.60-13.68L332.60-13.68Q332.20-12.04 332.20-10L332.20-10L332.20-10Q332.20-5.80 333.86-3.64L333.86-3.64L333.86-3.64Q335.52-1.48 338.28-1.48L338.28-1.48L338.28-1.48Q340.88-1.48 343.80-3.36L343.80-3.36L343.80-3.36Q344.32-3.08 344.52-2.32L344.52-2.32L344.52-2.32Q341.56 0.68 337.60 0.68L337.60 0.68L337.60 0.68Q335.68 0.68 333.92-0.06L333.92-0.06L333.92-0.06Q332.16-0.80 330.84-2.20L330.84-2.20L330.84-2.20Q329.52-3.60 328.74-5.56L328.74-5.56L328.74-5.56Q327.96-7.52 327.92-10L327.92-10L327.92-10Q327.92-12.52 328.74-14.52L328.74-14.52L328.74-14.52Q329.56-16.52 330.96-17.90L330.96-17.90L330.96-17.90Q332.36-19.28 334.28-20L334.28-20L334.28-20Q336.20-20.72 338.40-20.72L338.40-20.72L338.40-20.72Q341.68-20.72 344.60-19.44L344.60-19.44L344.60-19.44Q344.60-16.52 343.80-14L343.80-14L343.80-14Q343.64-13.96 343.16-13.96L343.16-13.96L343.16-13.96Q342.52-13.96 342.04-14.16ZM348.48-26.76L348.48-26.76L348.48-26.76Q348.48-27.52 349.40-28.32L349.40-28.32L349.40-28.32Q350.32-29.12 351.32-29.12L351.32-29.12L351.32-29.12Q352.32-29.12 353.04-28.22L353.04-28.22L353.04-28.22Q353.76-27.32 353.76-26.40L353.76-26.40L353.76-26.40Q353.76-25.60 352.86-24.82L352.86-24.82L352.86-24.82Q351.96-24.04 350.92-24.04L350.92-24.04L350.92-24.04Q350-24.04 349.24-24.94L349.24-24.94L349.24-24.94Q348.48-25.84 348.48-26.76ZM354-19.96L354-19.96L354-2L356.68-1.20L356.68-1.20Q356.80-0.44 356.48 0.20L356.48 0.20L356.48 0.20Q352.88 0 352 0L352 0L352 0Q350.80 0 347.12 0.20L347.12 0.20L347.12 0.20Q347-0.56 347.20-1.20L347.20-1.20L347.20-1.20Q349.44-1.72 350-2L350-2L350-17.60L346.68-17.92L346.68-17.92Q346.56-18.72 346.88-19.32L346.88-19.32L346.88-19.32Q350.20-19.80 352.48-20.40L352.48-20.40L352.48-20.40Q353.16-20.36 354-19.96ZM362.60-4.80L362.60-4.80L362.60-4.80Q362.60-3.20 363.46-2.36L363.46-2.36L363.46-2.36Q364.32-1.52 365.80-1.52L365.80-1.52L365.80-1.52Q366.92-1.52 368.18-2.20L368.18-2.20L368.18-2.20Q369.44-2.88 370.08-3.80L370.08-3.80L370.08-9.20L370.08-9.20Q365.96-9.20 364.28-8.22L364.28-8.22L364.28-8.22Q362.60-7.24 362.60-4.80ZM374.00-12.68L374.00-12.68L374.00-1.96L374.00-1.96Q374.60-1.64 376.80-1.16L376.80-1.16L376.80-1.16Q376.92-0.40 376.60 0.24L376.60 0.24L376.60 0.24Q375.12 0.52 373.24 0.52L373.24 0.52L373.24 0.52Q371.92 0.52 370.96 0.28L370.96 0.28L370.40-1.80L370.24-1.80L370.24-1.80Q367.84 0.68 364.28 0.68L364.28 0.68L364.28 0.68Q361.72 0.68 360.16-0.66L360.16-0.66L360.16-0.66Q358.60-2 358.60-4.40L358.60-4.40L358.60-4.40Q358.64-11 370.08-10.80L370.08-10.80L370.12-14.32L370.12-14.32Q370.16-18.96 366.60-19L366.60-19L366.60-19Q364.48-19 362.84-18.40L362.84-18.40L362.32-14.16L362.32-14.16Q361.52-13.88 360.56-14L360.56-14L360.56-14Q359.72-17.04 359.76-19.20L359.76-19.20L359.76-19.20Q363.08-20.80 367.68-20.80L367.68-20.80L367.68-20.80Q371.12-20.84 372.56-19.04L372.56-19.04L372.56-19.04Q374.00-17.24 374.00-12.68ZM385.08-20.04L385.08-20.04L384.96-17.32L385-17.28L385-17.28Q388.36-20.56 392.52-20.64L392.52-20.64L392.52-20.64Q395.16-20.64 396.64-19.14L396.64-19.14L396.64-19.14Q398.12-17.64 398.12-14.84L398.12-14.84L398.16-2L400.96-1.20L400.96-1.20Q401.08-0.44 400.76 0.20L400.76 0.20L400.76 0.20Q397.56 0 396.16 0L396.16 0L396.16 0Q394.72 0 391.44 0.20L391.44 0.20L391.44 0.20Q391.32-0.56 391.52-1.20L391.52-1.20L391.52-1.20Q392.76-1.44 394.16-2L394.16-2L394.16-13.04L394.16-13.04Q394.16-15.68 393.34-16.76L393.34-16.76L393.34-16.76Q392.52-17.84 390.64-17.84L390.64-17.84L390.64-17.84Q387.40-17.84 385.28-15.44L385.28-15.44L385.28-2L387.96-1.20L387.96-1.20Q388.08-0.44 387.76 0.20L387.76 0.20L387.76 0.20Q384.56 0 383.28 0L383.28 0L383.28 0Q382.08 0 378.40 0.20L378.40 0.20L378.40 0.20Q378.28-0.56 378.48-1.20L378.48-1.20L378.48-1.20Q380.40-1.68 381.28-2L381.28-2L381.28-17.60L377.96-17.92L377.96-17.92Q377.84-18.72 378.16-19.32L378.16-19.32L378.16-19.32Q381.24-19.84 383.72-20.40L383.72-20.40L383.72-20.40Q384.40-20.36 385.08-20.04Z" fill="url(#editing-rainbow-gradient)"></path></g></g><style>text {
  font-size: 64px;
  font-family: Arial Black;
  dominant-baseline: central;
  text-anchor: middle;
}</style></svg>